<svg xmlns="http://www.w3.org/2000/svg" viewBox="0 0 512 512">
  <defs>
    <linearGradient id="bg" x1="0" y1="0" x2="1" y2="1">
      <stop offset="0%" stop-color="#1e293b"/>
      <stop offset="100%" stop-color="#0ea5e9"/>
    </linearGradient>
  </defs>
  <rect width="512" height="512" rx="96" fill="url(#bg)"/>
  <g fill="#f1f5f9">
    <!-- ﬁ§Ø,S -->
    <rect x="216" y="100" width="80" height="180" rx="40" />
    <!-- ﬁ§Øß -->
    <path d="M160 240 a96 96 0 0 0 192 0" stroke="#f1f5f9" stroke-width="16" fill="none" stroke-linecap="round"/>
    <rect x="248" y="328" width="16" height="56"/>
    <rect x="208" y="380" width="96" height="14" rx="6"/>
  </g>
  <!-- h‚p–¸ -->
  <g fill="#38bdf8">
    <rect x="56" y="430" width="14" height="40" rx="3"/>
    <rect x="86" y="410" width="14" height="60" rx="3"/>
    <rect x="116" y="420" width="14" height="50" rx="3"/>
    <rect x="382" y="420" width="14" height="50" rx="3"/>
    <rect x="412" y="400" width="14" height="70" rx="3"/>
    <rect x="442" y="430" width="14" height="40" rx="3"/>
  </g>
</svg>
